<?xml version="1.0" encoding="UTF-8"?>
<svg id="Layer_2" data-name="Layer 2" xmlns="http://www.w3.org/2000/svg" viewBox="0 0 104.24 18.57">
  <defs>
    <style>
      .cls-1 {
        fill: #6522c3;
        stroke-width: 0px;
      }
    </style>
  </defs>
  <g id="OBJECTS">
    <g>
      <path class="cls-1" d="M3.86,18.32c-1.18-.15-2.33-.83-3.18-1.68C.18,16.12-.04,15.27,0,14.55c.2-2.03,2.5-3.05,4.1-1.78.05.05.27.27.3.33.05.02.18.25.23.27.03.05.18.05.23.05.73.03,1.5.03,2.18-.2.35-.12.7-.28,1.03-.45,0-.15.05-.43-.07-.5-.55-.17-1.13-.25-1.7-.32-1.23-.18-2.53-.33-3.6-.95-.95-.55-1.75-1.48-2.1-2.53-.2-.65-.4-1.33-.35-2.03.05-.93.17-1.93.73-2.7.48-.7,1.08-1.35,1.78-1.85.93-.65,1.98-1.28,3.13-1.43.73-.1,1.5-.08,2.25,0,.9.08,1.8.48,2.6.95.3.18,1.38,1,1.58,1.28.35.48.63,1.08.58,1.63-.05.43-.12.9-.38,1.25-.23.33-.53.65-.88.88-.5.28-1.13.38-1.68.3-.65-.12-1.23-.58-1.73-1-.13-.1-.65-.33-.83-.35-.12,0-.7-.02-.85.02-.18.05-.78.45-.93.58-.08.05-.33.25-.35.35-.08.15-.05.35.12.4.27.08,1.83.27,2.13.33,1.03.15,2.1.38,3,.9,1.18.68,2.1,1.95,2.43,3.3.08.32.1.65.12.98.05.78-.05,1.58-.3,2.3-.25.75-.75,1.43-1.33,1.95-.5.45-1.1.73-1.7,1.03-1.8.83-3.93,1.08-5.88.8Z"/>
      <path class="cls-1" d="M17.26,18.07c-.83-.27-1.5-1.08-1.63-1.95-.05-.45,0-2.88,0-3.35,0-2.13.15-4.25.2-6.38,0-.5-.02-3.15.07-3.65.12-.7.6-1.43,1.23-1.75.43-.23.9-.33,1.38-.33.07,0,.45.05.52.02.33-.05.65-.15.98-.17.9-.1,1.8-.13,2.7-.05.85.08,1.73.2,2.53.5.85.35,1.63.88,2.25,1.6.8.88,1.25,2.03,1.58,3.18.33,1.25.27,2.65-.18,3.88-.22.68-.7,1.25-1.2,1.78-.12.12-.75.78-.9.88-.5.43-1.17.78-1.8.98-1.35.45-2.83.33-4.25.43-.05.02-.12-.03-.12.02,0,.38.05,2.13-.05,2.5-.13.42-.28.85-.58,1.15-.2.2-.4.42-.65.55-.65.35-1.38.4-2.08.17ZM20.81,8.67c.67-.05,1.38-.02,2.05-.05.25-.02.47-.07.67-.17.17-.08.6-.53.7-.65.05-.1.03-.4.03-.5-.03-.38-.15-.75-.3-1.1-.1-.2-.22-.38-.4-.5-.45-.3-2.1-.28-2.63-.25-.08,0-.1,0-.1.07,0,1.03-.02,2.03-.08,3.05,0,.05,0,.1.05.1Z"/>
      <path class="cls-1" d="M41.32,18.57c-.38,0-2.38-.03-2.78-.08-.65-.1-1.28-.33-1.88-.58-.65-.25-1.3-.58-1.88-.95-.28-.18-.55-.33-.78-.55-1-.88-1.8-1.98-2.38-3.18-.5-1-.7-2.13-.8-3.25-.07-.98,0-2,.15-2.98.1-.65.2-1.33.42-1.95.35-1.03.95-2.03,1.73-2.78.58-.55,1.25-.98,1.95-1.3,1.1-.53,2.35-.78,3.58-.93,1.2-.15,2.43-.03,3.63.23.5.1,1,.2,1.48.38.7.27,1.38.65,2,1.05.75.45,1.33,1.15,1.85,1.83.68.9,1.08,2.05,1.3,3.15.58,2.83.28,5.98-.98,8.55-.47.98-1.38,1.78-2.3,2.33-.98.55-2.1.98-3.23.93-.08,0-.18-.02-.25-.02-.28.05-.55.1-.85.1ZM42.19,13.49c.08.02.12.05.2.05.28-.05.93-.35,1.1-.58.15-.22.42-1.2.47-1.48.1-.48.18-.95.2-1.43.1-1.03-.05-2.05-.3-3.03-.08-.23-.2-.43-.33-.63-.48-.68-1.35-1.08-2.18-1.23-.78-.15-1.58-.25-2.38-.12-.67.1-1.4.23-2,.55-.45.25-.8.75-.9,1.25-.2.9-.32,1.83-.25,2.75.03.5.1,1.03.3,1.48.17.38.88,1.4,1.23,1.6.55.35,1.15.68,1.78.83.25.05,1.4.05,1.62.05.48,0,.95-.15,1.43-.08Z"/>
      <path class="cls-1" d="M61.59,18.57c-.38,0-2.38-.03-2.78-.08-.65-.1-1.28-.33-1.88-.58-.65-.25-1.3-.58-1.88-.95-.28-.18-.55-.33-.78-.55-1-.88-1.8-1.98-2.38-3.18-.5-1-.7-2.13-.8-3.25-.07-.98,0-2,.15-2.98.1-.65.2-1.33.42-1.95.35-1.03.95-2.03,1.73-2.78.58-.55,1.25-.98,1.95-1.3,1.1-.53,2.35-.78,3.58-.93,1.2-.15,2.43-.03,3.63.23.5.1,1,.2,1.48.38.7.27,1.38.65,2,1.05.75.45,1.33,1.15,1.85,1.83.68.9,1.08,2.05,1.3,3.15.58,2.83.28,5.98-.98,8.55-.47.98-1.38,1.78-2.3,2.33-.98.55-2.1.98-3.23.93-.08,0-.18-.02-.25-.02-.28.05-.55.1-.85.1ZM62.47,13.49c.08.02.12.05.2.05.28-.05.93-.35,1.1-.58.15-.22.42-1.2.47-1.48.1-.48.18-.95.2-1.43.1-1.03-.05-2.05-.3-3.03-.08-.23-.2-.43-.33-.63-.48-.68-1.35-1.08-2.18-1.23-.78-.15-1.58-.25-2.38-.12-.67.1-1.4.23-2,.55-.45.25-.8.75-.9,1.25-.2.9-.32,1.83-.25,2.75.03.5.1,1.03.3,1.48.17.38.88,1.4,1.23,1.6.55.35,1.15.68,1.78.83.25.05,1.4.05,1.62.05.48,0,.95-.15,1.43-.08Z"/>
      <path class="cls-1" d="M83.8,18.4c-.7-.1-1.35-.6-1.78-1.15-.52-.7-1-1.45-1.55-2.15-.4-.5-.85-.95-1.28-1.4-.35-.4-.68-.83-.98-1.25-.05-.05-.28-.18-.33-.23-.12.1-.7.5-.83.58-.03.45-.1,2.98-.15,3.43-.1.62-.5,1.23-1.03,1.6-1.68,1.18-3.95,0-3.95-2.05,0-.65.2-4.5.22-5.15.05-1.5.08-3,0-4.5-.02-.58-.33-3.1-.17-3.68.12-.52.42-1.05.83-1.4,1.2-.98,2.98-.68,3.78.68.43.7.33,1.6.4,2.43.08.73.15,1.45.17,2.15.68-.55,4.58-3.68,5.2-4.28.1-.08.53-.58.62-.65.35-.23.75-.45,1.15-.53,1.63-.27,3.08,1.05,2.93,2.68-.03.38-.13.78-.35,1.1-.4.55-.9,1.05-1.45,1.5-.4.38-3.03,2.5-3.45,2.85.35.4.65.85,1,1.25.48.58,1,1.08,1.48,1.65.58.73,1.05,1.5,1.63,2.23.15.2.35.38.47.6,1.08,1.83-.5,4.08-2.6,3.7Z"/>
      <path class="cls-1" d="M93.72,16c0-.08.05-.53.05-.6.03-.63.1-3.9.05-4.55,0-.08-.23-.25-.28-.33-.33-.38-2.23-2.73-2.53-3.1-.22-.25-1.53-1.75-1.73-2.03-.05-.07-.38-.52-.45-.6-.22-.27-.45-.58-.6-.93-.5-1.25.22-2.78,1.5-3.23.7-.23,1.43-.15,2.08.2.6.3.98.93,1.4,1.48.38.45,2.65,3.13,3.03,3.58.55-.73,3.18-4.13,3.9-4.68,1.75-1.35,4.28-.08,4.08,2.13-.03.38-.12.73-.33,1.05-.15.28-1.2,1.45-1.4,1.68-.48.55-3.23,4.05-3.68,4.6.05.7-.02,4.3-.07,5,0,.12-.05.7-.08.8-.12.43-.28.85-.58,1.15-.3.3-.62.58-1.03.73-1.63.6-3.33-.63-3.35-2.35Z"/>
    </g>
  </g>
</svg>